<svg width="24.000000" height="24.000000" viewBox="0 0 24 24" xmlns="http://www.w3.org/2000/svg" xmlns:xlink="http://www.w3.org/1999/xlink">
	<defs/>
	<path id="Union" d="M16.06 8.99C16.35 8.7 16.35 8.22 16.06 7.93C15.77 7.64 15.29 7.64 15 7.93L12 10.93L8.99 7.93C8.7 7.64 8.22 7.64 7.93 7.93C7.64 8.22 7.64 8.7 7.93 8.99L10.93 12L7.93 15C7.64 15.29 7.64 15.77 7.93 16.06C8.22 16.35 8.7 16.35 8.99 16.06L12 13.06L15 16.06C15.29 16.35 15.77 16.35 16.06 16.06C16.35 15.77 16.35 15.29 16.06 15L13.06 12L16.06 8.99Z" fill-opacity="1.000000" fill-rule="evenodd"/>
</svg>
