<svg width="24.000000" height="24.000000" viewBox="0 0 24 24" fill="none" xmlns="http://www.w3.org/2000/svg" xmlns:xlink="http://www.w3.org/1999/xlink">
	<defs>
		<clipPath id="clip10_6608">
			<rect id="Property 1=Interface, Property 2=More, State=Default, Size=Desktop" width="24.000000" height="24.000000" fill="white" fill-opacity="0"/>
		</clipPath>
	</defs>
	<g clip-path="url(#clip10_6608)">
		<path id="Vector" d="M10 18C10 19.1 10.9 20 12 20C13.1 20 14 19.1 14 18C14 16.89 13.1 16 12 16C10.9 16 10 16.89 10 18ZM10 6C10 7.1 10.9 8 12 8C13.1 8 14 7.1 14 6C14 4.89 13.1 4 12 4C10.9 4 10 4.89 10 6ZM10 12C10 13.1 10.9 14 12 14C13.1 14 14 13.1 14 12C14 10.89 13.1 10 12 10C10.9 10 10 10.89 10 12Z" fill-opacity="1.000000" fill-rule="nonzero"/>
	</g>
</svg>
