<svg width="84.000000" height="84.000000" viewBox="0 0 84 84" fill="none" xmlns="http://www.w3.org/2000/svg" xmlns:xlink="http://www.w3.org/1999/xlink">
	<defs/>
	<path id="Icon" d="M25.1 13.19C35.91 11.98 47.08 11.98 57.89 13.19C61.94 13.64 65.51 15.83 67.76 19.02L39.75 47.03L31.1 38.39C30.08 37.36 28.41 37.36 27.39 38.39C26.36 39.41 26.36 41.08 27.39 42.1L37.89 52.6C38.91 53.63 40.58 53.63 41.6 52.6L70.01 24.2C70.08 24.58 70.15 24.97 70.19 25.36C71.49 36.41 71.49 47.58 70.19 58.63C69.44 65.05 64.28 70.09 57.89 70.8C47.08 72.01 35.91 72.01 25.1 70.8C18.71 70.09 13.55 65.05 12.8 58.63C11.5 47.58 11.5 36.41 12.8 25.36C13.55 18.94 18.71 13.9 25.1 13.19Z" fill="#C6F4C6" fill-opacity="1.000000" fill-rule="nonzero"/>
</svg>
